# xmcd
#
# Track frame offsets:
#	150
#	12789
#	27615
#	43711
#	60113
#	79602
#	90966
#	106191
#	123387
#	135672
#	152236
#	164735
#	178625
#
# Disc length: 2577 seconds
#
# Revision: 1
# Processed by: cddbd v1.5.2PL0 Copyright (c) Steve Scherf et al.
# Submitted via: audiograbber 1.83.01
#
DISCID=9a0a0f0d
DTITLE=Paceshifters - One For The Road
DYEAR=2010
DGENRE=
TTITLE0=Rock 'N' Roll Trip
TTITLE1=Beauty Queen
TTITLE2=Good Or Bad
TTITLE3=Raise A Little Hell
TTITLE4=Age Of The Millennials
TTITLE5=No Job
TTITLE6=Your Voice
TTITLE7=I Don't Listen
TTITLE8=Bore Out
TTITLE9=Dad
TTITLE10=Starting Over Again
TTITLE11=Too Dirty
TTITLE12=Hey Judge
EXTD=
EXTT0=
EXTT1=
EXTT2=
EXTT3=
EXTT4=
EXTT5=
EXTT6=
EXTT7=
EXTT8=
EXTT9=
EXTT10=
EXTT11=
EXTT12=
PLAYORDER=
